name Run_50002_GRF.mot
datacolumns 19
datarows 15
range 0.995 1.009
endheader
time	     ground_force_vx	     ground_force_vy	     ground_force_vz	     ground_force_px	     ground_force_py	     ground_force_pz	   l_ground_force_vx	   l_ground_force_vy	   l_ground_force_vz	   l_ground_force_px	   l_ground_force_py	   l_ground_force_pz	     ground_torque_x	     ground_torque_y	     ground_torque_z	   l_ground_torque_x	   l_ground_torque_y	   l_ground_torque_z	
0.995	          0.00000000	          0.00000000	          0.00000000	          0.00000000	          0.00000000	          0.00000000	        232.44406100	       1209.86767600	        -51.24790600	          0.74924100	          0.00000000	         -0.35646000	          0.00000000	          0.00000000	          0.00000000	         -0.00000000	          7.55499900	         -0.00000000	
0.996	          0.00000000	          0.00000000	          0.00000000	          0.00000000	          0.00000000	          0.00000000	        237.14285300	       1188.43542500	        -51.81112700	          0.74474700	          0.00000000	         -0.35635400	          0.00000000	          0.00000000	          0.00000000	         -0.00000000	          7.73611400	         -0.00000000	
0.997	          0.00000000	          0.00000000	          0.00000000	          0.00000000	          0.00000000	          0.00000000	        241.53794900	       1166.85546900	        -52.29212200	          0.74027100	          0.00000000	         -0.35624400	          0.00000000	          0.00000000	          0.00000000	         -0.00000000	          7.90512500	         -0.00000000	
0.998	          0.00000000	          0.00000000	          0.00000000	          0.00000000	          0.00000000	          0.00000000	        245.60112000	       1145.13586400	        -52.68854900	          0.73582300	          0.00000000	         -0.35613100	          0.00000000	          0.00000000	          0.00000000	         -0.00000000	          8.06175500	         -0.00000000	
0.999	          0.00000000	          0.00000000	          0.00000000	          0.00000000	          0.00000000	          0.00000000	        249.30712900	       1123.28356900	        -52.99894000	          0.73141200	          0.00000000	         -0.35601400	          0.00000000	          0.00000000	          0.00000000	         -0.00000000	          8.20576700	         -0.00000000	
1	          0.00000000	          0.00000000	          0.00000000	          0.00000000	          0.00000000	          0.00000000	        252.63456700	       1101.30529800	        -53.22269100	          0.72704800	          0.00000000	         -0.35589500	          0.00000000	          0.00000000	          0.00000000	         -0.00000000	          8.33696800	         -0.00000000	
1.001	          0.00000000	          0.00000000	          0.00000000	          0.00000000	          0.00000000	          0.00000000	        255.56642200	       1079.20715300	        -53.36008100	          0.72273700	          0.00000000	         -0.35577300	          0.00000000	          0.00000000	          0.00000000	         -0.00000000	          8.45520600	         -0.00000000	
1.002	          0.00000000	          0.00000000	          0.00000000	          0.00000000	          0.00000000	          0.00000000	        258.09051500	       1056.99560500	        -53.41225100	          0.71849000	          0.00000000	         -0.35564900	          0.00000000	          0.00000000	          0.00000000	         -0.00000000	          8.56037200	         -0.00000000	
1.003	          0.00000000	          0.00000000	          0.00000000	          0.00000000	          0.00000000	          0.00000000	        260.19964600	       1034.67700200	        -53.38116100	          0.71431100	          0.00000000	         -0.35552300	          0.00000000	          0.00000000	          0.00000000	         -0.00000000	          8.65240000	         -0.00000000	
1.004	          0.00000000	          0.00000000	          0.00000000	          0.00000000	          0.00000000	          0.00000000	        261.89160200	       1012.25848400	        -53.26955800	          0.71020800	          0.00000000	         -0.35539600	          0.00000000	          0.00000000	          0.00000000	         -0.00000000	          8.73126500	         -0.00000000	
1.005	          0.00000000	          0.00000000	          0.00000000	          0.00000000	          0.00000000	          0.00000000	        263.16903700	        989.74762000	        -53.08090600	          0.70618500	          0.00000000	         -0.35526800	          0.00000000	          0.00000000	          0.00000000	         -0.00000000	          8.79698400	         -0.00000000	
1.006	          0.00000000	          0.00000000	          0.00000000	          0.00000000	          0.00000000	          0.00000000	        264.03884900	        967.15240500	        -52.81932800	          0.70224600	          0.00000000	         -0.35514000	          0.00000000	          0.00000000	          0.00000000	         -0.00000000	          8.84961600	         -0.00000000	
1.007	          0.00000000	          0.00000000	          0.00000000	          0.00000000	          0.00000000	          0.00000000	        264.51193200	        944.48162800	        -52.48951300	          0.69839200	          0.00000000	         -0.35501100	          0.00000000	          0.00000000	          0.00000000	         -0.00000000	          8.88925900	         -0.00000000	
1.008	          0.00000000	          0.00000000	          0.00000000	          0.00000000	          0.00000000	          0.00000000	        264.60223400	        921.74456800	        -52.09664500	          0.69462600	          0.00000000	         -0.35488400	          0.00000000	          0.00000000	          0.00000000	         -0.00000000	          8.91605300	         -0.00000000	
1.009	          0.00000000	          0.00000000	          0.00000000	          0.00000000	          0.00000000	          0.00000000	        264.32629400	        898.95111100	        -51.64628600	          0.69094700	          0.00000000	         -0.35475800	          0.00000000	          0.00000000	          0.00000000	         -0.00000000	          8.93017000	         -0.00000000	
